<svg 
  width="1000" 
  height="1350" 
  viewBox="0 0 1136 1533" 
  xmlns="http://www.w3.org/2000/svg"
  version="1.1"
>
  <g id="peep-body" transform="translate(147, 639)">
    <!-- Generator: Sketch 62 (91390) - https://sketch.com -->
    <title xmlns="http://www.w3.org/2000/svg">body/mono/Blazer Black Tee</title>
    <desc xmlns="http://www.w3.org/2000/svg">Created with Sketch.</desc>
    <g xmlns="http://www.w3.org/2000/svg" id="body/mono/Blazer-Black-Tee" stroke="none" stroke-width="1" fill="none" fill-rule="evenodd">
        <path d="M735.5557,227.4311 C721.6747,161.6691 672.4462,110.6393 606.2382,85.2183 C593.511715,78.0202542 581.175188,47.1344458 564.071541,41.4781328 C561.329824,40.5714251 565.657383,47.7873642 564.071541,48.2183 C558.415081,49.7553838 552.077171,49.9158903 545.831904,44.365067 C534.670211,34.4445006 531.168486,5.46126669 524.382121,-7.638195 C488.591121,-76.724195 399.2287,-49.6929 387.2567,26.6801 C378.90907,32.1209948 367.108607,36.9139984 358.022001,41.2984194 C348.665224,45.8132011 340.434796,56.7485003 330.792249,60.6580966 C322.188649,64.146449 308.012387,61.6752413 299.342989,64.7163092 C259.468912,78.7034139 225.696784,96.3526332 199.2197,132.1121 C193.6407,139.6541 187.3517,148.9261 182.2747,156.5451 C156.1007,186.6761 137.9207,220.4481 121.1767,256.6811 C74.3307,363.0321 61.5887,480.7861 50.1567,595.3721 C50.4167,615.4211 37.1127,671.0151 56.7897,680.6271 C55.6137,681.8461 56.0397,684.2951 58.2217,684.2741 C108.1147,683.7701 157.8917,688.2351 207.0107,696.9161 C230.7097,701.1051 254.2817,706.8491 278.4217,707.7931 C328.5327,707.4471 378.4637,699.0501 428.5087,706.9961 C488.670929,706.9961 561.786485,705.24306 628.716211,702.670144 C691.268626,700.265501 754.156241,705.69641 815.9337,695.0591 C820.8237,694.2851 823.2117,688.3211 822.1867,684.0471 C814.9387,657.6371 811.3807,630.4551 807.3137,603.4241 C808.1237,586.0861 806.6747,567.9861 800.2607,551.8371 C783.5027,442.8191 762.0137,334.5121 735.5557,227.4311 Z" id="🎨-Background" fill="#EBC4AF"/>
        <path d="M715.3684,370.7279 C714.0484,377.1379 712.1984,383.5479 709.7384,389.6189 C707.3684,395.4779 703.7984,400.7279 701.3394,406.5179 C701.0094,407.2979 700.4694,407.8879 699.8184,408.3379 L700.021275,409.9129 L700.021275,409.9129 L700.2084,411.4879 C701.434971,422.116471 702.814359,432.715655 704.009024,443.342757 L704.5894,448.6589 C706.9384,470.8479 710.6484,492.9279 713.5284,515.0579 C716.3484,536.7279 719.2194,558.3979 722.2884,580.0379 C725.4584,602.3479 728.6884,624.6279 732.4584,646.8479 C734.050067,656.232067 735.711178,665.608594 737.441733,674.977483 L738.7784,682.1479 C752.5384,685.4579 756.2984,704.6379 742.2884,711.7179 C735.9294,714.9179 727.7594,714.1479 722.5184,709.1189 C717.072159,703.877789 716.846073,694.426068 715.582089,687.327168 L714.364434,680.73046 C705.25311,631.126876 697.34536,580.9519 693.6484,530.6479 C692.6984,517.6589 691.8984,504.6589 691.3784,491.6479 C690.884317,479.4104 691.120435,467.17374 690.931372,454.93561 L690.8684,451.5979 C690.5794,438.5479 690.8184,425.5179 691.1584,412.4679 C691.1984,410.8779 691.2684,409.2879 691.3484,407.6879 C690.8894,407.1479 690.5584,406.5079 690.4194,405.8879 L690.2384,405.0679 C689.7884,402.9579 690.2984,400.4879 691.9194,398.9779 C692.6184,390.0879 693.5384,381.2079 693.7884,372.3279 C693.8084,371.5979 694.8584,371.6189 694.9194,372.3279 C695.5094,379.8879 696.6884,387.4679 697.8684,395.0379 C705.4584,388.9379 711.0684,378.8779 714.3784,370.4579 C714.6184,369.8479 715.5094,370.0679 715.3684,370.7279 Z M535.7882,17.3073 C537.0482,23.0673 539.5382,28.2383 542.8782,33.0483 C544.4692,35.3483 546.2782,37.4883 548.4482,39.2783 C550.3092,40.8073 552.4292,41.8073 554.4082,43.1383 C557.2882,42.6873 560.2982,43.7783 562.3182,45.8973 L561.9992,42.7983 C561.8982,41.7983 563.5592,41.5983 563.7492,42.5673 C572.497825,86.6889667 580.476828,130.839104 587.383444,175.279992 L590.410835,194.905769 L593.259399,213.330245 C597.989063,244.031936 602.564015,274.721374 606.0092,305.6473 C610.5992,346.9183 614.4582,388.2983 617.2782,429.7373 C620.1082,471.4683 621.8492,513.2273 623.0892,555.0383 C623.3982,565.5783 623.7292,576.1083 624.0482,586.6473 L626.184231,574.046628 C628.316012,561.4433 630.40645,548.8283 632.1982,536.1683 C638.6282,490.8583 643.7692,445.2273 646.2782,399.5283 C648.5792,357.7083 647.8092,315.0583 637.1692,274.3173 C634.4882,264.0673 631.2082,253.9773 627.2492,244.1473 C623.4082,234.5883 618.1692,225.7273 614.0382,216.3083 C609.2382,205.3483 607.7982,195.0083 610.2692,183.2083 C612.4292,172.9283 616.2192,163.2583 616.8982,152.6783 C618.1692,133.0383 611.7782,114.0173 602.7492,96.8283 C600.3682,92.2983 597.8582,87.8283 595.2382,83.3973 C587.3092,70.0083 578.3682,57.1073 569.0892,44.7383 C568.5892,44.0783 569.6482,43.3483 570.1892,43.8883 C578.6482,52.2483 587.8982,60.4683 595.5092,69.5983 C599.2082,74.0383 602.8182,78.5673 606.2382,83.2183 C643.7592,89.4883 675.9992,112.8573 698.0382,143.7183 C723.0482,178.7383 735.6982,220.8883 745.0592,262.3973 C755.4692,308.5283 764.2492,355.0783 773.5992,401.4373 C783.2782,449.4083 792.9082,497.3783 802.6482,545.3383 C807.4882,569.1473 812.3292,592.9583 817.1582,616.7783 C819.6082,628.8383 822.1792,640.8683 824.8682,652.8883 C826.2492,659.0483 827.7292,665.1983 829.0092,671.3783 C830.4482,678.3483 829.1082,682.8073 824.3892,687.9283 C822.6482,689.8283 819.8982,689.7983 817.7382,688.7883 L817.062965,688.470366 L816.410344,688.155257 C813.737583,686.841723 811.642131,685.480576 809.9792,682.5573 C808.1482,679.3483 807.8582,675.7883 807.2292,672.2183 C806.0682,665.6473 804.9192,659.0783 803.7592,652.4983 C802.02595,642.6583 800.141387,632.846425 798.223216,623.036941 L788.59945,574.01405 C786.0332,560.9428 783.4632,547.8728 780.8782,534.8083 C771.6482,488.0883 762.4082,441.3783 753.1692,394.6683 C744.2982,349.8173 736.4482,304.6583 726.3492,260.0673 L725.775021,257.555221 L725.191082,255.046498 C716.16044,216.606182 703.542783,179.42205 680.6482,146.8483 C663.0282,121.7983 638.5592,99.4283 609.7382,88.1073 C611.7692,91.0283 613.7192,94.0083 615.5792,97.0483 C627.2592,116.1283 635.7882,138.7783 633.7882,161.4983 C632.8092,172.5983 628.5892,183.5083 628.9882,194.6983 C629.3582,204.6383 635.5092,213.3683 639.7592,222.0173 C649.4082,241.6183 656.3892,262.4483 660.8892,283.8173 C669.9192,326.7273 669.8892,370.8783 666.7782,414.4373 C663.3982,461.7883 656.9792,509.1283 649.6692,556.0173 C645.9192,580.0673 640.9292,603.9183 637.1082,627.9283 C635.2192,639.7673 632.6482,651.5783 630.3982,663.3583 L629.325867,668.986337 C628.725496,672.109732 628.102595,675.223045 627.383089,678.303299 L626.9392,680.1473 L626.9392,680.4773 C626.9192,682.7483 626.2982,684.6283 625.2982,686.1283 C623.9292,690.5173 622.2292,694.7983 619.9692,698.9083 C618.8092,701.0083 617.1282,702.1873 615.2982,702.6183 C613.4582,706.8283 609.2882,710.0673 604.3092,710.048547 L538.8182,709.7983 C500.7782,709.6473 462.7382,709.3973 424.6982,709.1873 C415.0992,709.1383 405.5092,708.9583 395.9192,708.7083 C386.9292,708.4583 378.3092,707.3783 369.4192,706.2583 C359.3782,704.9983 353.9392,697.8883 355.4392,687.8583 C355.7692,685.6473 356.1282,683.4483 356.4692,681.2483 C354.4692,681.9083 352.0892,681.5983 350.4792,680.0283 L348.969756,678.551028 C346.877397,676.481146 345.00601,674.448586 343.6792,671.6873 C342.3092,668.8483 341.1982,665.8483 339.9882,662.9483 C337.3782,656.7083 334.8392,650.4483 332.3682,644.1583 C327.4192,631.5783 322.4692,618.9483 317.8682,606.2373 C308.7592,581.0673 300.6982,555.5173 293.6892,529.6783 C281.1892,483.5783 272.1482,436.5883 266.4482,389.1783 L265.085418,377.87879 L264.689166,374.541048 C262.527675,356.165431 260.708577,337.504547 261.5682,319.1683 C262.0992,307.6873 263.8782,296.1183 268.1692,285.3973 C272.1282,275.5083 278.2382,267.0483 284.0482,258.2083 L284.713058,257.187877 L285.381472,256.142578 C290.46261,248.113366 294.505635,239.71906 294.7082,229.9683 C294.913497,220.073165 292.030736,210.443099 288.80753,201.179423 L288.004202,198.894816 L287.465033,197.3827 C280.608045,178.236875 272.80465,159.3618 275.3782,138.5283 C279.1792,107.8483 297.7782,83.1183 321.1792,64.0483 C300.3682,68.1683 279.7692,76.3073 261.5892,86.6283 C240.1182,98.8283 220.7882,114.9283 204.1182,133.0983 C172.6182,167.4373 150.1282,208.6383 131.7192,251.1783 C112.4482,295.6983 98.1582,342.3483 87.3892,389.6083 C76.5592,437.1383 69.3092,485.4283 64.3582,533.9083 C61.8892,558.0383 59.9482,582.2273 58.3392,606.4283 C57.5192,618.8283 56.8992,631.2483 55.9392,643.6283 C54.9792,655.9983 54.5482,668.5573 51.5282,680.5983 C50.1182,686.2083 40.6082,686.7783 39.5892,680.5983 C37.3277294,666.796535 37.9597483,652.52375 38.590905,638.547985 L38.6482,637.2783 C39.2692,623.3583 40.0792,609.4483 41.0382,595.5383 C42.9992,567.1083 45.6182,538.7183 49.0382,510.4183 C61.0282,411.0783 83.1392,312.2583 126.5092,221.5783 C146.9292,178.8683 173.1392,137.3683 209.5992,106.5283 C226.9582,91.8573 246.5282,80.1473 267.6182,71.6683 C286.4792,64.0783 305.6392,60.4883 325.6792,60.4983 C335.7292,52.7983 346.5192,46.0883 357.2982,40.3573 C357.9482,40.0083 358.6282,40.8483 358.0892,41.3883 C357.8092,41.6583 357.5382,41.9373 357.2592,42.1983 C358.4792,42.2783 359.7382,42.8483 360.8682,44.0383 C364.8292,48.1873 368.1692,53.3783 371.1582,58.7673 C375.7082,64.4483 380.0482,70.3173 384.5892,75.9373 C391.8582,84.9373 399.2982,93.8073 406.8292,102.6073 C419.476568,117.396668 432.535893,131.906015 446.154269,145.831792 L448.4292,148.1473 C455.4882,155.2983 462.6392,163.8573 470.9882,169.5173 L471.433962,169.813803 C474.956478,172.108706 477.45436,172.5255 480.4582,169.0983 C483.189129,165.9783 485.462205,162.358198 487.798657,158.918551 L488.3392,158.1283 C500.2692,140.7983 511.3292,122.8283 521.3392,104.3283 C525.901927,95.9092091 530.24234,87.3678041 534.36044,78.7318838 L535.5892,76.1383 C537.8292,71.3783 540.2592,66.7083 542.1082,61.8073 C542.5382,60.6583 542.9582,59.5083 543.3682,58.3683 C537.0682,54.2383 532.1892,45.2983 530.4192,38.2983 C528.5792,31.0283 529.5092,23.5673 532.7882,16.9183 C533.4082,15.6683 535.4882,15.9773 535.7882,17.3073 Z M225.000123,312.7375 C224.1283,340.3785 223.5993,368.0485 222.2983,395.6685 L221.8493,405.0975 C223.8783,407.3585 225.0683,409.9675 224.1183,413.5485 C223.7493,414.9185 222.6583,416.1585 221.2983,416.6185 L220.874286,425.385375 C218.944411,464.830129 216.682093,504.192983 212.5483,543.5385 C207.3783,592.7785 201.3983,641.9375 195.4293,691.0885 C194.5793,698.0485 189.7383,703.5675 182.2083,702.5485 C174.5893,701.5175 171.4993,694.8875 172.4993,687.9775 C176.4293,660.8685 180.2083,633.7375 183.5193,606.5385 L187.289211,575.549661 C192.016433,536.812569 196.854826,498.081447 202.4293,459.4675 C204.7593,443.3285 207.1793,427.1985 209.6083,411.0675 L208.7593,409.9675 C205.2883,405.4585 201.6983,401.0485 198.1483,396.6085 C191.3293,388.0485 184.5993,379.5575 178.3493,370.5975 C178.0383,370.1475 178.6693,369.4875 179.1183,369.8285 C187.8783,376.2985 196.1693,383.2175 204.5093,390.2485 L211.8093,396.4275 C216.0093,368.5575 220.1693,340.6775 223.8783,312.7375 C223.9693,312.0385 225.0193,311.9875 225.000123,312.7375 Z M351.0092,48.2183 C345.7382,53.1873 340.3492,58.0483 335.0382,62.9883 L333.092886,64.8063705 L331.156569,66.632809 C321.822935,75.4840025 312.880442,84.6976939 305.4292,95.2783 C291.7492,114.7083 283.5992,138.3973 289.2882,162.1183 C294.0092,181.7673 304.8392,199.5783 307.7492,219.7183 C309.2082,229.8083 308.4992,239.9483 304.6982,249.4773 C300.8182,259.1983 294.6182,267.5283 289.0482,276.2983 C276.9482,295.3583 275.2982,316.2783 276.4992,338.3583 C277.7592,361.4183 280.4082,384.4873 283.6792,407.3383 C290.2982,453.6383 300.2782,499.4583 313.4882,544.3283 C320.0992,566.7983 327.9082,588.7883 335.6792,610.8683 C339.5482,621.8583 344.0592,632.5883 348.7082,643.2673 C351.1582,648.8883 353.6692,654.4773 356.2192,660.0573 C355.2782,652.1783 355.2782,644.0883 354.8182,636.2583 C354.1582,625.0383 353.3182,613.8383 352.5482,602.6283 C350.9792,579.8783 349.5792,557.1083 348.3292,534.3383 C343.8992,453.1383 340.6392,371.8683 340.8782,290.5383 C340.9992,249.8683 341.8292,209.1983 343.5792,168.5673 C344.3996,149.433967 345.98832,130.318927 347.424189,111.212424 L347.7292,107.1183 C348.9992,89.9683 350.5192,72.7783 353.1282,55.7783 C352.355756,54.0351889 351.685237,52.2699543 351.18758,50.4594193 L351.0092,49.7783 L351.1392,49.7983 C351.0192,49.2673 350.9792,48.7383 351.0092,48.2183 Z M396.5894,-21.6619 C396.6984,-22.1319 397.3684,-22.0919 397.4884,-21.6619 C400.4584,-11.6619 399.4084,-0.6619 396.8494,9.3981 C395.4694,14.8481 393.5094,20.1381 391.1394,25.2381 L390.31003,27.0228656 C388.279392,31.3662726 385.992945,35.8414333 382.0384,38.5481 C380.3894,39.6781 377.4384,39.7481 375.7884,38.5481 L374.946919,37.9095815 C374.8084,37.8014333 374.671733,37.6914333 374.5384,37.5781 C372.9994,36.2881 372.2384,33.4381 372.9484,31.5581 C374.7784,26.7081 378.9294,23.1481 381.7984,18.8281 C384.3394,14.9881 386.5894,10.9381 388.4584,6.7281 C392.4884,-2.3819 394.2984,-12.0519 396.5894,-21.6619 Z" id="🖍-Ink" fill="#ef4444"/>
    </g>
</g>
  <g id="peep-head-assembly" transform="translate(372, 180)">
    <g id="peep-hair">
    <!-- Generator: Sketch 62 (91390) - https://sketch.com -->
    <title xmlns="http://www.w3.org/2000/svg">head/mono/Bangs</title>
    <desc xmlns="http://www.w3.org/2000/svg">Created with Sketch.</desc>
    <g xmlns="http://www.w3.org/2000/svg" id="head/mono/Bangs" stroke="none" stroke-width="1" fill="none" fill-rule="evenodd">
        <path d="M431.617143,424.843986 C427.653143,418.982035 418.108143,376.442123 412.011143,369.899143 C412.471143,344.768912 419.418157,257.761904 399.575257,218.65 C403.749257,214.429198 414.841143,178.074468 412.011143,164.331066 C421.359143,135.549031 361.306143,89.8356357 338.451143,77.4827888 C232.230143,20.524077 78.3081431,83.3968248 30.0011431,188.911954 C0.972143091,252.456885 0.437143091,323.603191 -2.84485691,391.978213 C-3.23285691,406.613929 -4.57785691,421.363641 -4.56285691,435.981667 C-2.46385691,448.826859 7.721,461.907954 -1.25766064e-12,472.589186 C-8.529,478.488481 -25.7668569,492.859796 -18.0918569,501.00953 C-13.5938569,504.754693 -6.40885691,502.581889 -1.52785691,506.182592 C0.957143091,507.573147 2.50714309,510.619593 5.41314309,511.083439 C31.9591431,510.075164 50.6916148,509.988803 77.3196148,508.91272 C88.9766148,508.531423 106.726898,513.461631 120.107143,503.64618 C166.845004,529.641806 147.295259,491.92686 156.746259,465.074896 C185.526259,474.805834 242.856143,505.836673 273.533143,506.839052 C298.462143,509.919893 321.773143,495.402104 346.281143,498.707007 C376.728143,510.018166 412.410143,512.532958 440.299143,493.395381 C447.259143,488.382503 455.002478,494.189347 463.774478,488.776501 C480.823478,480.622836 440.221143,433.888982 431.617143,424.843986 Z" id="🎨-Background" fill="#EBC4AF"/>
        <path d="M396.8226,215.3125 C396.4446,213.1415 399.4356,211.5225 400.5926,213.7225 C408.9976,229.7035 412.3646,248.2115 415.3416,265.8635 C418.3486,283.7015 420.3356,301.6135 420.4456,319.7215 C420.5296,333.6505 419.2646,347.7405 416.8896,361.6795 L417.1786,362.6715 L417.1786,362.6715 C417.711933,364.4935 418.250156,366.314167 418.794156,368.1335 L419.6146,370.8615 C421.2006,376.0995 422.7026,381.3615 424.3316,386.5865 C427.7326,397.4915 431.3136,408.4275 435.6996,418.9805 C439.9796,429.2785 445.1846,439.2095 451.3716,448.4915 C457.3346,457.4395 466.7976,465.0055 470.9986,474.9435 C472.4626,478.4065 470.2976,482.9845 466.2536,482.4315 C465.9906,482.7485 465.5896,482.9785 465.0456,483.0265 C461.9056,483.3005 458.9626,483.0395 455.8296,482.7455 C454.0806,482.5815 454.0836,480.1905 455.8296,480.0265 C457.1606,479.9015 458.4566,479.7915 459.7516,479.7165 C450.7916,474.4075 444.3996,464.0405 439.2886,455.5535 C432.7206,444.6495 427.7596,432.7355 423.7156,420.6875 C419.5626,408.3175 416.6216,395.6895 414.2586,382.8675 C413.9876,381.3915 413.7296,379.9145 413.4816,378.4355 C410.4956,391.1285 406.6506,403.5895 402.0936,415.5655 L401.455025,417.232433 C390.94979,444.465706 376.72164,471.96086 353.0566,489.9615 C351.9826,490.7775 350.8856,491.5525 349.7796,492.3105 L351.125881,493.082281 C352.46585,493.847375 353.78585,494.58125 355.0766,495.1835 C359.8586,497.4145 365.0496,499.1155 370.1846,500.3205 C380.7906,502.8115 391.9286,502.0975 402.7486,502.4445 C406.2976,502.5585 408.3166,507.8795 404.6886,509.6075 C392.7376,515.2985 379.8296,514.0905 367.4936,510.0865 C361.3896,508.1035 355.6616,505.3285 350.3626,501.7055 C348.1716,500.2085 345.6276,498.3605 343.4796,496.2245 C319.8126,509.4665 290.3966,510.9485 264.0546,506.2125 C250.3656,503.7505 237.1006,499.2555 225.4296,491.5665 C214.2036,484.1725 206.2016,474.8105 200.4886,462.6815 C199.9816,461.6065 201.3906,460.2675 202.2556,461.3185 C220.2006,483.1135 251.0826,492.2075 278.2506,493.9375 C292.7466,494.8615 307.5756,494.0935 321.5126,489.7565 C334.7336,485.6405 346.0776,478.0965 355.5496,468.0635 C374.7486,447.7265 386.2526,420.0605 394.5146,393.7315 C403.5026,365.0885 407.7826,334.9525 408.6656,304.9765 C409.1126,289.7895 408.5496,274.4745 406.1646,259.4555 C403.7986,244.5605 399.4076,230.1445 396.8226,215.3125 Z M127.7717,86.2818 C129.0427,85.6358 129.9377,87.3168 128.8597,88.1438 C106.4827,105.3048 86.4427,127.0648 70.2227,150.0958 C40.3097,192.5728 21.1257,241.7268 12.2917,292.8028 C7.0757,322.9658 5.7137,353.5858 6.2347,384.1508 C6.4411,396.2924 7.13454,408.39688 7.905932,420.5052 L8.77677612,433.92717 C9.18117059,440.18044 9.51890069,446.380496 9.25782111,452.664174 L9.1867,454.1158 C8.7727,461.4278 9.4917,468.7988 7.6577,475.9318 C6.7167,479.5898 1.5577,480.1658 -0.3103,476.9728 C-0.6763,476.3478 -1.0183,475.7028 -1.3503,475.0518 C-5.7283,482.1918 -11.3983,488.5748 -17.6893,494.2768 C-14.6823,493.6368 -11.6463,493.2288 -8.5293,493.6018 C-3.5883,494.1938 0.8437,496.1018 3.9797,499.4458 C7.0927,498.0428 10.2937,497.0768 13.9747,497.0568 C16.6857,497.0428 18.7187,500.2478 17.1717,502.6288 C14.0857,507.3808 9.7797,510.0448 4.8867,512.6778 C1.41905294,514.544467 -2.71948993,512.948042 -3.99993146,509.257721 L-4.0733,509.0338 C-5.5143,504.3658 -13.1783,505.1198 -16.7943,505.8418 L-17.858457,506.059087 C-24.5893875,507.459612 -31.1622,509.2525 -38.0193,507.4038 C-42.4423,506.2108 -43.5983,499.5528 -39.3343,497.3428 C-25.8643,490.3628 -14.5563,480.9868 -2.9353,471.5728 C-5.5013,465.2818 -6.9583,458.2528 -8.6383,451.8558 C-11.0033,442.8518 -11.6943,433.1638 -12.5483,423.9148 C-14.1713,406.3298 -14.7903,388.5538 -14.6163,370.8998 C-14.0273,311.2718 -3.8293,251.4588 22.2197,197.4638 C33.6317,173.8108 48.6237,151.9238 66.3447,132.5508 C83.9607,113.2918 104.5357,98.0838 127.7717,86.2818 Z M106.9166,378.2956 C106.2256,377.3376 107.5746,376.0706 108.5206,376.6916 C129.0016,390.1446 143.2146,410.5726 152.3856,433.0136 C161.4636,455.2306 167.0376,482.4436 158.0846,505.6116 C156.6596,509.3016 149.8346,510.6716 149.1356,505.6116 C146.0146,483.0156 145.5296,460.3876 138.6666,438.4196 C131.8626,416.6426 120.2206,396.7006 106.9166,378.2956 Z M91.0362,451.6525 C91.1482,451.2535 91.8002,451.3225 91.7722,451.7525 C91.2592,459.7205 90.9112,467.7855 89.9092,475.7095 C89.4222,479.5605 88.7782,483.3865 88.2302,487.2285 C87.6682,491.1685 87.7532,495.1465 85.4622,498.5115 C82.4262,502.9725 74.3602,501.7175 74.6312,495.5785 C74.8182,491.3435 76.7642,488.6255 78.5872,484.9085 C79.7565333,482.525167 80.7756444,480.061833 81.7580148,477.587241 L83.2182,473.8755 C86.1202,466.5145 88.8972,459.2775 91.0362,451.6525 Z M54.3614,430.5451 C54.4854,429.9181 55.4964,430.0691 55.4664,430.6941 C54.9194,441.9721 53.6474,453.1231 51.6554,464.2361 C50.74715,469.301475 49.6880719,474.338522 48.5679352,479.361309 L48.0844,481.5131 C46.8864,486.8031 46.1134,493.0221 43.4294,497.7481 C40.7474,502.4711 34.3794,499.0411 35.2044,494.2801 C36.1684,488.7221 39.5794,483.1311 41.5624,477.7931 C43.3924,472.8651 44.9924,467.8501 46.4874,462.8111 C49.6344,452.2041 52.2154,441.3981 54.3614,430.5451 Z M122.657681,461.8551 L122.8961,461.6105 C123.8281,460.5975 125.2181,461.2725 125.6631,462.3415 C127.4851,466.7225 126.5731,471.8885 126.4431,476.5395 L126.418944,477.553759 C126.321989,482.265242 126.3895,486.678167 124.2531,491.0275 C121.6591,496.3085 114.8241,493.0285 114.2951,488.3305 C113.7171,483.2035 116.1421,478.1845 117.7081,473.3825 C118.7031,470.3305 119.4281,467.1565 120.9411,464.3865 C119.6471,464.6095 118.3551,465.0565 117.1721,465.3795 C116.6421,465.5225 116.4421,464.7445 116.9481,464.5645 C118.90415,463.87195 121.111997,463.351777 122.657681,461.8551 L122.657681,461.8551 Z M395.3165,477.4021 C394.6915,476.7031 395.4705,475.7721 396.2815,476.1501 C406.0215,480.6991 415.1315,483.6581 425.8785,484.6271 C430.5355,485.0471 430.5645,492.3631 425.8785,491.9391 C414.6625,490.9291 402.9075,485.9001 395.3165,477.4021 Z M52.6412,323.7087 C61.2162,304.4197 88.3442,287.3087 106.5352,305.2467 C106.8762,305.5817 106.5292,306.3127 106.0342,306.1077 C94.7192,301.4187 80.8672,307.3827 73.0362,315.9127 C66.8232,322.6787 63.0902,331.3667 62.3492,340.5237 C61.6082,349.6887 63.7992,359.2547 69.8862,366.3437 C73.0792,370.0627 77.3912,373.5827 82.4652,374.0297 C87.5882,374.4807 91.8582,370.8727 96.7012,369.8927 C100.3522,369.1547 103.1082,371.4457 103.4662,375.0447 C104.2552,382.9877 96.3472,388.3187 89.4922,389.6137 C82.1182,391.0057 74.5922,389.4847 68.2382,385.4887 C47.7162,372.5827 43.2892,344.7477 52.6412,323.7087 Z M245.1865,134.6464 C248.9155,131.0824 255.2585,134.6254 253.8825,139.7094 C250.9565,150.5294 244.7375,159.6744 237.8475,168.3544 C231.2185,176.7054 224.1165,184.7304 216.5045,192.1994 C208.9425,199.6194 200.7265,206.4854 192.0915,212.6184 L189.490857,214.460488 C183.370984,218.774525 176.888875,223.137275 170.0385,226.2444 C168.3845,240.4944 165.1485,254.5544 160.2525,268.0154 C155.5375,280.9774 149.5375,293.5044 142.2675,305.2274 L141.223628,306.906358 C134.54305,317.612813 126.50985,329.5783 115.1735,335.4474 C114.8335,335.6244 114.4925,335.7324 114.1565,335.7954 C116.6925,337.4864 118.8355,339.6134 120.1095,342.6694 C121.5055,346.0154 118.5875,349.1724 115.7905,350.2774 C109.8755,352.6144 104.1055,348.6584 98.7885,344.4384 C98.5635,344.9444 98.3515,345.4554 98.1695,345.9704 C96.9805,349.3404 96.6305,352.7844 93.5645,355.0204 C92.1075,356.0834 90.3125,355.1324 89.3955,353.9284 C86.3895,349.9784 89.5015,344.5974 92.1445,341.3694 C92.5105,340.9234 92.8885,340.4994 93.2775,340.0924 C92.1605,339.2714 91.0705,338.5434 90.0145,337.9844 C83.8055,334.6964 74.6015,334.1134 71.0265,341.3924 C70.7525,341.9514 69.8914991,341.6624 69.8914991,341.0844 C69.9005,332.1434 79.0595,327.2874 87.0075,326.6274 C92.8145588,326.145518 98.4311678,328.182002 103.658071,330.553376 L104.6335,331.0014 C106.5785,331.9044 108.5825,332.7564 110.5005,333.7094 C110.1885,332.8864 110.1935,331.9184 110.6845,330.9584 C116.6955,319.2194 127.0175,309.6734 134.4615,298.8014 C141.8435,288.0154 148.1815,276.4724 153.2405,264.4194 C158.1505,252.7204 161.9975,240.6544 164.6875,228.3474 C163.8015,228.5304 162.8025,227.7414 162.8655,226.8164 C163.0155,224.5784 164.1105,222.5624 166.0335,221.7034 C168.1515,210.1274 169.2325,198.3554 169.1695,186.4884 C169.1645,185.5684 170.4975,185.6014 170.5755,186.4884 C171.5115,197.0394 171.5875,207.6934 170.8005,218.2854 C175.8025,213.6834 181.0775,209.3084 185.8935,204.5844 C193.1405,197.4764 200.1515,190.1784 206.9145,182.6094 C213.8145,174.8874 220.3365,166.8814 226.3005,158.4104 L229.421637,153.967988 C234.220399,147.157667 239.149821,140.418579 245.1865,134.6464 Z M235.777,58.6204 C276.933,56.0514 320.887,61.1094 357.855,80.4284 C378.158,91.0374 393.851,107.0724 405.064,127.0274 C411.759,138.9434 416.838,152.1384 418.762,165.7044 C420.738,179.6434 418.418,192.0724 409.518,203.1524 C405.983,207.5524 400.029,202.6374 400.9,198.1354 C406.228,170.5914 397.586,143.3774 382.259,120.5744 C360.018,87.4844 321.177,72.7854 283.36,66.2284 C264.78,63.0084 245.935,61.6624 227.085,62.3174 C212.714,62.8174 197.972,64.1564 184.334,68.9914 C183.759,69.1954 183.53,68.2994 184.084,68.0884 C200.352,61.8754 218.512,59.6984 235.777,58.6204 Z M296.815,120.9033 C298.934,119.5603 301.526,120.9383 302.254,123.1173 C304.822,130.7993 299.44,140.9483 295.84,147.5963 C291.766,155.1193 286.527,162.1533 281.117,168.7603 C270.294,181.9743 256.069,193.0003 240.459,199.9303 C239.503,200.3553 238.389,199.2013 239.266,198.3853 C251.344,187.1383 262.295,175.0803 271.775,161.5533 C276.433,154.9063 280.318,147.8943 284.028,140.6913 C287.348,134.2453 290.47,124.9253 296.815,120.9033 Z M366.0327,129.9528 C367.3867,125.2248 375.0987,126.0298 374.7797,131.1368 C373.9547,144.3298 367.7307,157.5728 360.9677,168.7538 C354.0037,180.2668 345.1847,190.5268 335.0757,199.3878 C334.5777,199.8248 333.8957,199.1518 334.3467,198.6588 C343.0687,189.1108 350.1137,178.2348 355.3307,166.3988 C360.5417,154.5798 362.5087,142.2478 366.0327,129.9528 Z M327.7033,127.8167 C329.1783,123.7057 336.2383,124.0107 335.8053,128.9137 C334.6153,142.3917 326.7053,156.5167 319.3793,167.6487 C311.6053,179.4597 301.6823,189.8647 290.5923,198.6037 C290.1773,198.9307 289.5903,198.3887 289.9953,198.0067 C299.9563,188.6217 308.0343,177.7807 314.4293,165.6887 C317.6933,159.5187 320.4313,153.0937 322.5933,146.4567 C324.5933,140.3167 325.5323,133.8687 327.7033,127.8167 Z" id="🖍-Ink" fill="#919191"/>
    </g>
</g>
    <g id="peep-face" transform="translate(159, 186)">
    <!-- Generator: Sketch 62 (91390) - https://sketch.com -->
    <title xmlns="http://www.w3.org/2000/svg">face/Angry with Fang</title>
    <desc xmlns="http://www.w3.org/2000/svg">Created with Sketch.</desc>
    <g xmlns="http://www.w3.org/2000/svg" id="face/Angry-with-Fang" stroke="none" stroke-width="1" fill="none" fill-rule="evenodd">
        <path d="M196.5474,185.9139 C198.026892,183.981222 201.62664,192.394704 202.360997,193.42337 L202.3964,193.4699 C205.6004,197.3469 208.2164,203.2839 208.5864,208.2619 C208.5974,208.4109 208.5974,208.5549 208.5974,208.6989 C213.7334,207.9939 218.8704,207.2759 224.0054,206.4879 C225.9914,204.9949 228.7704,205.4579 231.4594,206.8169 C237.4564,209.8439 234.5374,219.4609 228.0764,219.3069 C210.6064,218.8909 192.7634,221.1339 175.4394,223.1529 C166.5274,224.1919 157.6344,225.2939 148.7704,226.7029 C140.4894,228.0179 132.0224,229.8759 123.6414,230.23829 C123.1844,230.2569 122.9934,229.5759 123.4054,229.3639 C130.7944,225.5689 139.2344,223.2709 147.2124,221.0479 C155.8454,218.6429 164.5424,216.3849 173.3004,214.4789 C181.1594,212.7679 189.0594,211.4879 196.9774,210.3349 C196.9164,210.1799 196.8574,210.0219 196.8074,209.8559 C195.803165,206.486488 195.82913,202.621021 195.614727,199.070695 L195.490559,197.186044 C195.295458,193.93866 195.100221,187.806567 196.5474,185.9139 Z M170.814304,144.367155 C178.365682,148.9572 189.871664,159.660291 181.748119,171.039573 C172.185929,181.073062 158.418535,169.568982 151.634201,164.366134 C145.343449,160.333898 138.275437,170.704507 144.112,175.412823 C193.135736,211.708059 213.030606,145.567387 174.633685,138.970386 C170.406047,138.243425 168.835891,142.947174 170.814304,144.367155 Z M49.4016,103.967 C61.9666,102.05 74.8376,101.83 87.5336,102.464 C94.1346,102.793 100.7276,103.283 107.3056,103.935 C110.7396,104.276 114.1706,104.658 117.5946,105.087 C120.0506,105.395 123.8426,106.801 126.1766,106.161 C133.3086,104.208 140.0796,110.957 138.1126,118.098 C136.1616,125.184 127.8006,127.053 122.4226,122.797 C119.8726,121.898 117.3076,121.046 114.7276,120.25 C114.5306,121.063 114.2416,121.867 113.8336,122.644 C113.3756,123.514 112.9346,124.39 112.5166,125.279 C112.6066,125.137 111.9156,126.794 111.8966,126.842 L111.344066,128.285023 C110.381494,130.77318 109.302697,133.132903 106.6876,134.422 C103.0926,136.194 97.4526,135.217 95.9996,130.989 C93.7299571,126.542452 95.2320819,120.330092 96.5328396,115.724108 L96.6336,115.37 C80.9526,111.641 65.0116,108.845 49.4016,105.052 C48.8916,104.928 48.8396,104.053 49.4016,103.967 Z M235.8942,87.2405 C236.7102,85.6075 238.5602,85.6005 239.6612,87.1345 C242.108336,90.5400085 236.627575,95.4174138 234.340652,97.6837577 L234.1122,97.9125 C228.9712,103.1285 222.7012,107.3325 216.4852,111.1335 C215.1812,111.9305 213.8572,112.6905 212.5282,113.4395 C212.7742,113.9345 212.9982,114.4395 213.1812,114.9545 C214.1222,117.6125 214.1402,120.7875 213.2922,123.4735 C211.5262,129.0745 206.8272,133.5495 200.7332,133.543512 C197.5192,133.5405 193.7142,130.5015 194.1492,126.9595 C194.3042,125.6985 194.4312,124.3565 194.6242,123.0155 C190.3382,124.4415 185.0752,122.7705 182.3492,119.2375 C178.5582,114.3265 179.6012,106.2775 185.4052,103.2275 C189.6732,100.9855 194.3842,100.4195 199.0072,99.2345 C203.5952,98.0605 208.1512,96.7115 212.6422,95.2045 C217.0712,93.7185 221.4792,92.1265 225.8802,90.5535 C228.0572,89.7745 230.2112,89.0565 232.4272,88.3965 C233.4172,88.1025 234.8422,87.3295 235.8942,87.2405 Z" id="🖍-Ink" fill="#000000"/>
    </g>
</g>
    <g id="peep-facial-hair" transform="translate(123, 338)"></g>
    <g id="peep-accessories" transform="translate(47, 241)"></g>
  </g>
</svg>